<svg width="70" height="70" viewBox="0 0 70 70" fill="none" xmlns="http://www.w3.org/2000/svg">
<path d="M11.3477 45.9375C11.3477 46.6927 10.7356 47.3047 9.98047 47.3047C9.22531 47.3047 8.61328 46.6927 8.61328 45.9375C8.61328 45.1823 9.22531 44.5703 9.98047 44.5703C10.7356 44.5703 11.3477 45.1823 11.3477 45.9375Z" fill="#3185AB"/>
<path d="M68.6328 67.2656H67.2656V35C67.2656 32.7383 65.4258 30.8984 63.1641 30.8984H61.3867V24.0625C61.3867 23.6267 61.179 23.2166 60.827 22.9591C60.4751 22.7017 60.0217 22.6275 59.6056 22.7594L52.7734 24.9287V15.8594C52.7734 15.1042 52.1614 14.4922 51.4062 14.4922H47.3047V11.7578H51.4062C52.1614 11.7578 52.7734 11.1458 52.7734 10.3906V1.36719C52.7734 0.61203 52.1614 0 51.4062 0H18.5938C17.8386 0 17.2266 0.61203 17.2266 1.36719V10.3906C17.2266 11.1458 17.8386 11.7578 18.5938 11.7578H22.6953V14.4922H18.5938C17.8386 14.4922 17.2266 15.1042 17.2266 15.8594V24.9287L10.3944 22.7594C9.97833 22.6275 9.52492 22.7017 9.17297 22.9591C8.82103 23.2166 8.61328 23.6267 8.61328 24.0625V30.8984H6.83594C4.5742 30.8984 2.73438 32.7383 2.73438 35V67.2656H1.36719C0.61203 67.2656 0 67.8777 0 68.6328C0 69.388 0.61203 70 1.36719 70H68.6328C69.388 70 70 69.388 70 68.6328C70 67.8777 69.388 67.2656 68.6328 67.2656ZM63.1641 33.6328C63.9182 33.6328 64.5312 34.2459 64.5312 35V67.2656H61.3867V33.6328H63.1641ZM58.6523 25.9312V67.2656H52.7734V27.7972L58.6523 25.9312ZM19.9609 2.73438H50.0391V9.02344H19.9609V2.73438ZM25.4297 11.7578H44.5703V14.4922H25.4297V11.7578ZM50.0391 17.2266V67.2656H44.5703V54.1406C44.5703 53.3855 43.9583 52.7734 43.2031 52.7734H26.7969C26.0417 52.7734 25.4297 53.3855 25.4297 54.1406V67.2656H19.9609C19.9609 65.0034 19.9609 19.0359 19.9609 17.2266H50.0391ZM36.3672 55.5078H41.8359V67.2656H36.3672V55.5078ZM33.6328 67.2656H28.1641V55.5078H33.6328V67.2656ZM5.46875 35C5.46875 34.2459 6.08185 33.6328 6.83594 33.6328H8.61328V40.4688C8.61328 41.2239 9.22531 41.8359 9.98047 41.8359C10.7356 41.8359 11.3477 41.2239 11.3477 40.4688V25.9312L17.2266 27.7972V67.2656H11.3477V51.4062C11.3477 50.6511 10.7356 50.0391 9.98047 50.0391C9.22531 50.0391 8.61328 50.6511 8.61328 51.4062V67.2656H5.46875V35Z" fill="#3185AB"/>
<path d="M24.0625 28.1641H32.2656C33.0208 28.1641 33.6328 27.552 33.6328 26.7969V21.3281C33.6328 20.573 33.0208 19.9609 32.2656 19.9609H24.0625C23.3073 19.9609 22.6953 20.573 22.6953 21.3281V26.7969C22.6953 27.552 23.3073 28.1641 24.0625 28.1641ZM25.4297 22.6953H30.8984V25.4297H25.4297V22.6953Z" fill="#3185AB"/>
<path d="M37.7344 28.1641H45.9375C46.6927 28.1641 47.3047 27.552 47.3047 26.7969V21.3281C47.3047 20.573 46.6927 19.9609 45.9375 19.9609H37.7344C36.9792 19.9609 36.3672 20.573 36.3672 21.3281V26.7969C36.3672 27.552 36.9792 28.1641 37.7344 28.1641ZM39.1016 22.6953H44.5703V25.4297H39.1016V22.6953Z" fill="#3185AB"/>
<path d="M24.0625 39.1016H32.2656C33.0208 39.1016 33.6328 38.4895 33.6328 37.7344V32.2656C33.6328 31.5105 33.0208 30.8984 32.2656 30.8984H24.0625C23.3073 30.8984 22.6953 31.5105 22.6953 32.2656V37.7344C22.6953 38.4895 23.3073 39.1016 24.0625 39.1016ZM25.4297 33.6328H30.8984V36.3672H25.4297V33.6328Z" fill="#3185AB"/>
<path d="M37.7344 39.1016H45.9375C46.6927 39.1016 47.3047 38.4895 47.3047 37.7344V32.2656C47.3047 31.5105 46.6927 30.8984 45.9375 30.8984H37.7344C36.9792 30.8984 36.3672 31.5105 36.3672 32.2656V37.7344C36.3672 38.4895 36.9792 39.1016 37.7344 39.1016ZM39.1016 33.6328H44.5703V36.3672H39.1016V33.6328Z" fill="#3185AB"/>
<path d="M24.0625 50.0391H32.2656C33.0208 50.0391 33.6328 49.427 33.6328 48.6719V43.2031C33.6328 42.448 33.0208 41.8359 32.2656 41.8359H24.0625C23.3073 41.8359 22.6953 42.448 22.6953 43.2031V48.6719C22.6953 49.427 23.3073 50.0391 24.0625 50.0391ZM25.4297 44.5703H30.8984V47.3047H25.4297V44.5703Z" fill="#3185AB"/>
<path d="M37.7344 50.0391H45.9375C46.6927 50.0391 47.3047 49.427 47.3047 48.6719V43.2031C47.3047 42.448 46.6927 41.8359 45.9375 41.8359H37.7344C36.9792 41.8359 36.3672 42.448 36.3672 43.2031V48.6719C36.3672 49.427 36.9792 50.0391 37.7344 50.0391ZM39.1016 44.5703H44.5703V47.3047H39.1016V44.5703Z" fill="#3185AB"/>
</svg>
