<svg width="70" height="70" viewBox="0 0 70 70" fill="none" xmlns="http://www.w3.org/2000/svg">
<path d="M49.7163 35.8568C49.5956 35.4445 49.2856 35.1078 48.8737 34.9571C48.7906 34.9268 48.1167 34.6883 47.07 34.5352C51.5418 29.777 50.0653 24.2179 49.7163 23.1322C49.5956 22.7197 49.2856 22.383 48.8737 22.2323C48.6818 22.162 45.3347 20.9819 41.5214 22.309C41.7367 21.4256 41.8626 20.4545 41.8626 19.3889C41.8626 12.5712 36.6997 9.5746 35.6637 9.04263C35.2868 8.83618 34.8292 8.81732 34.4316 9.00216C34.1752 9.12124 28.1522 12.0037 28.1522 19.3889C28.1522 20.4567 28.2787 21.4299 28.4948 22.3146C24.6748 20.9786 21.3188 22.1619 21.1265 22.2323C20.7146 22.383 20.4047 22.7197 20.2839 23.1322C19.9349 24.2179 18.4585 29.777 22.9303 34.5352C21.8835 34.6883 21.2097 34.9268 21.1265 34.9571C20.7146 35.1078 20.4045 35.4446 20.2838 35.857C19.9275 36.9654 18.3954 42.7354 23.2164 47.5564C26.0063 50.3463 29.1027 51.0118 31.4225 51.0118C32.2814 51.0118 33.0321 50.9204 33.6232 50.8118V59.7577C33.6232 60.5127 34.2352 61.1249 34.9903 61.1249C35.7454 61.1249 36.3575 60.5127 36.3575 59.7577V50.8084C36.9513 50.9183 37.7094 51.0117 38.5776 51.0117C40.8973 51.0117 43.9941 50.3459 46.7837 47.5563C51.6047 42.7352 50.0726 36.9652 49.7163 35.8568ZM33.6232 46.5499C33.5928 47.1705 33.5057 47.692 33.4225 48.0671C31.9611 48.3918 28.3047 48.7776 25.15 45.6228C22.0428 42.5159 22.3685 38.92 22.7125 37.351C23.6314 37.1513 25.4244 36.9287 27.4096 37.5729C27.5403 37.6219 27.6706 37.6681 27.8002 37.7112C28.8515 38.1098 29.9431 38.7606 30.9777 39.795C32.949 41.7664 33.5377 43.9334 33.6232 45.6377V46.5499ZM33.6232 33.8253C33.5928 34.4459 33.5057 34.9675 33.4225 35.3424C32.517 35.5438 30.7689 35.7673 28.8197 35.1589C28.6221 35.0827 28.4257 35.0134 28.2306 34.9507C27.2109 34.5479 26.155 33.9031 25.1499 32.8981C22.0428 29.7911 22.3685 26.1954 22.7125 24.6265C24.1725 24.309 27.8391 23.932 30.9777 27.0705C30.9976 27.0904 31.0157 27.1105 31.0352 27.1304C31.1551 27.2649 31.2754 27.3936 31.3956 27.5171C33.032 29.3644 33.5441 31.3367 33.6232 32.9132V33.8253ZM35.0096 26.9656C34.5811 26.6908 33.9637 26.2379 33.3366 25.5831C33.2726 25.513 33.2079 25.4429 33.1415 25.373C31.9992 24.1041 30.8865 22.1576 30.8865 19.3889C30.8865 14.9323 33.7384 12.62 35.0005 11.815C36.3521 12.6799 39.1281 14.9922 39.1281 19.3889C39.1281 22.0016 38.1477 23.8763 37.0824 25.1434C36.8609 25.3652 36.6537 25.5891 36.4583 25.8142C35.9117 26.3456 35.3882 26.7245 35.0096 26.9656ZM36.366 33.3822C36.3641 31.7772 36.7793 29.6531 38.4793 27.6584C38.6807 27.4582 38.8831 27.2429 39.0838 27.0114C42.2211 23.9255 45.8349 24.3025 47.2871 24.6238C47.6312 26.1912 47.9591 29.7893 44.8501 32.8981C43.8468 33.9015 42.793 34.5457 41.7751 34.9488C41.5768 35.0125 41.377 35.0829 41.176 35.1604C39.2271 35.7678 37.4801 35.5435 36.5782 35.3428C36.477 34.8871 36.3698 34.2179 36.3659 33.4171C36.3659 33.4055 36.366 33.3939 36.366 33.3822ZM44.8501 45.6228C41.6949 48.7781 38.0383 48.3916 36.5804 48.0681C36.2625 46.6137 35.8782 42.9393 39.0224 39.795C40.0284 38.7891 41.0851 38.1442 42.1056 37.7414C42.3003 37.6788 42.4962 37.6099 42.6932 37.5338C44.6382 36.9268 46.3823 37.1483 47.2871 37.3483C47.6312 38.9159 47.9591 42.514 44.8501 45.6228Z" fill="#3185AB"/>
<path d="M42.2947 0.76166C39.9116 0.256347 37.4572 0 35 0C25.6512 0 16.8619 3.64054 10.2513 10.2513C3.64068 16.8619 0 25.6512 0 35C0 42.7899 2.6209 50.3941 7.39593 56.5169C6.85876 57.3479 6.5696 58.3158 6.5696 59.3289C6.5696 60.7166 7.11005 62.0212 8.09128 63.0025C9.07251 63.9838 10.3772 64.5242 11.7649 64.5242C13.1526 64.5242 14.4573 63.9838 15.4385 63.0025C16.4199 62.0212 16.9602 60.7166 16.9602 59.3289C16.9602 57.9412 16.4198 56.6367 15.4385 55.6553C14.4573 54.6739 13.1526 54.1335 11.7649 54.1335C10.9424 54.1335 10.1496 54.3247 9.4355 54.6838C5.10808 49.0663 2.73437 42.1177 2.73437 35C2.73437 17.2086 17.2086 2.73437 35 2.73437C37.267 2.73437 39.5304 2.97062 41.7275 3.43656C42.4666 3.5931 43.1919 3.12129 43.3486 2.38273C43.5052 1.64404 43.0334 0.918339 42.2947 0.76166ZM10.0248 57.5886C10.5045 57.1087 11.1346 56.8689 11.7649 56.8689C12.3952 56.8689 13.0253 57.1089 13.5051 57.5886C13.9699 58.0533 14.2258 58.6714 14.2258 59.3288C14.2258 59.9861 13.9699 60.6041 13.5051 61.0689C12.5456 62.0287 10.9842 62.0284 10.0248 61.0689C9.55991 60.6042 9.30398 59.9861 9.30398 59.3288C9.30398 58.6714 9.55991 58.0535 10.0248 57.5886Z" fill="#3185AB"/>
<path d="M62.6041 13.4831C63.1413 12.6521 63.4304 11.6841 63.4304 10.671C63.4304 9.28332 62.89 7.97862 61.9087 6.99739C60.9275 6.01602 59.6228 5.47571 58.2351 5.47571C56.8474 5.47571 55.5427 6.01616 54.5615 6.99739C53.5803 7.97862 53.0398 9.28332 53.0398 10.671C53.0398 12.0587 53.5803 13.3634 54.5615 14.3447C55.5427 15.326 56.8474 15.8663 58.2351 15.8663C59.0578 15.8663 59.8505 15.6751 60.5647 15.316C64.892 20.9337 67.2657 27.8823 67.2657 35C67.2657 52.7913 52.7914 67.2656 35.0001 67.2656C33.0861 67.2656 31.1685 67.0969 29.3005 66.764C28.5576 66.6318 27.8471 67.1266 27.7147 67.8702C27.5823 68.6135 28.0775 69.3235 28.8208 69.456C30.8468 69.8169 32.9258 70 35.0001 70C44.3489 70 53.1381 66.3593 59.7489 59.7488C66.3596 53.1383 70 44.3488 70 35C70 27.21 67.3791 19.6059 62.6041 13.4831ZM59.9754 12.4112C59.5107 12.876 58.8926 13.132 58.2353 13.132C57.5779 13.132 56.9598 12.8762 56.4951 12.4112C55.5355 11.4517 55.5355 9.89049 56.4951 8.93086C56.9598 8.46602 57.5779 8.21008 58.2353 8.21008C58.8926 8.21008 59.5106 8.46602 59.9754 8.93086C60.4403 9.39557 60.6962 10.0137 60.6962 10.671C60.6962 11.3284 60.4403 11.9463 59.9754 12.4112Z" fill="#3185AB"/>
<path d="M22.987 64.9552L22.4707 66.2212L22.9832 64.9537C22.2828 64.671 21.4862 65.0088 21.2032 65.7088C20.9202 66.4088 21.2583 67.2058 21.9583 67.4889L22.0006 67.5056C22.1618 67.5672 22.3277 67.5965 22.491 67.5965C23.0417 67.5965 23.5622 67.2632 23.7705 66.7195C24.0407 66.0141 23.6922 65.2252 22.987 64.9552Z" fill="#3185AB"/>
<path d="M48.1009 2.53515L48.0766 2.52544C47.3756 2.2449 46.5799 2.58601 46.2994 3.2871C46.0189 3.9882 46.36 4.78363 47.0611 5.06417L47.0766 5.07046C47.2445 5.13828 47.4178 5.17027 47.5884 5.17027C48.1292 5.17027 48.6414 4.8472 48.8564 4.31496C49.1393 3.61482 48.8011 2.81802 48.1009 2.53515Z" fill="#3185AB"/>
</svg>
