<svg width="70" height="71" viewBox="0 0 70 71" fill="none" xmlns="http://www.w3.org/2000/svg">
<path d="M50.1666 65.9279H17.5C16.856 65.9279 16.3334 66.4505 16.3334 67.0945V69.4279C16.3334 70.0718 16.856 70.5945 17.5 70.5945C18.1439 70.5945 18.6666 70.0718 18.6666 69.4279V68.2612H50.1666C50.8106 68.2612 51.3332 67.7386 51.3332 67.0946C51.3332 66.4507 50.8107 65.9279 50.1666 65.9279Z" fill="white"/>
<path d="M25.6666 29.7611C25.6666 30.405 26.1893 30.9277 26.8332 30.9277H31.5C32.1439 30.9277 32.6666 30.405 32.6666 29.7611V22.7611C32.6666 22.1172 32.1439 21.5945 31.5 21.5945H26.8334C26.1894 21.5945 25.6668 22.1172 25.6668 22.7611V29.7611H25.6666ZM28 23.9279H30.3334V28.5945H28V23.9279Z" fill="white"/>
<path d="M15.1666 14.5945H1.16662C0.522676 14.5945 0 15.1172 0 15.7611V39.0945C0 39.7384 0.522676 40.2611 1.16662 40.2611C1.81057 40.2611 2.33324 39.7384 2.33324 39.0945V16.9279H15.1666C15.8106 16.9279 16.3332 16.4052 16.3332 15.7612C16.3332 15.1173 15.8107 14.5945 15.1666 14.5945Z" fill="white"/>
<path d="M56 57.7611C56 58.405 56.5227 58.9277 57.1666 58.9277H61.8332C62.4772 58.9277 62.9999 58.405 62.9999 57.7611V50.7611C62.9999 50.1172 62.4772 49.5945 61.8332 49.5945H57.1666C56.5227 49.5945 56 50.1172 56 50.7611V57.7611ZM58.3334 51.9279H60.6668V56.5945H58.3334V51.9279Z" fill="white"/>
<path d="M5.83338 42.5945C0.0664453 42.5945 0 57.6095 0 57.7611C0 60.5786 2.00785 62.9341 4.66662 63.4766V69.4279C4.66662 70.0718 5.1893 70.5945 5.83324 70.5945C6.47719 70.5945 6.99986 70.0718 6.99986 69.4279V63.4766C9.65863 62.9341 11.6665 60.5786 11.6665 57.7611C11.6666 57.6095 11.6002 42.5945 5.83338 42.5945ZM5.83338 61.2611C3.90373 61.2611 2.33338 59.6908 2.33338 57.7611C2.33338 51.9488 3.89443 44.9277 5.83338 44.9277C7.77232 44.9277 9.33338 51.9488 9.33338 57.7611C9.33338 59.6908 7.76303 61.2611 5.83338 61.2611Z" fill="white"/>
<path d="M12.8334 35.5945H8.16662C7.52268 35.5945 7 36.1172 7 36.7611V39.0945C7 39.7384 7.52268 40.2611 8.16662 40.2611C8.81057 40.2611 9.33324 39.7384 9.33324 39.0945V37.9279H11.6666V43.7612C11.6666 44.4052 12.1893 44.9279 12.8332 44.9279C13.4772 44.9279 13.9999 44.4052 13.9999 43.7612V36.7612C14 36.1172 13.4773 35.5945 12.8334 35.5945Z" fill="white"/>
<path d="M57.1666 30.9278H61.8332C62.4772 30.9278 62.9999 30.4052 62.9999 29.7612V22.7612C62.9999 22.1173 62.4772 21.5946 61.8332 21.5946H57.1666C56.5227 21.5946 56 22.1173 56 22.7612V29.7612C56 30.4052 56.5227 30.9278 57.1666 30.9278ZM58.3334 23.9278H60.6668V28.5945H58.3334V23.9278Z" fill="white"/>
<path d="M12.8334 21.5945H8.16662C7.52268 21.5945 7 22.1172 7 22.7611V29.7611C7 30.405 7.52268 30.9277 8.16662 30.9277H12.8332C13.4772 30.9277 13.9999 30.405 13.9999 29.7611V22.7611C14 22.1172 13.4773 21.5945 12.8334 21.5945ZM11.6666 28.5945H9.33338V23.9279H11.6668V28.5945H11.6666Z" fill="white"/>
<path d="M37.3334 29.7611C37.3334 30.405 37.8561 30.9277 38.5 30.9277H43.1666C43.8106 30.9277 44.3332 30.405 44.3332 29.7611V22.7611C44.3332 22.1172 43.8106 21.5945 43.1666 21.5945H38.5C37.8561 21.5945 37.3334 22.1172 37.3334 22.7611V29.7611ZM39.6666 23.9279H42V28.5945H39.6666V23.9279Z" fill="white"/>
<path d="M68.8334 14.5945H54.8334C54.1894 14.5945 53.6667 15.1172 53.6667 15.7611C53.6667 16.405 54.1894 16.9277 54.8334 16.9277H67.6667V63.8091C67.3005 63.6784 66.9119 63.5945 66.5001 63.5945C66.2983 63.5945 66.0976 63.612 65.9005 63.647C65.0955 62.1968 63.5637 61.2611 61.8335 61.2611C60.1033 61.2611 58.5715 62.1968 57.7665 63.647C57.5694 63.612 57.3687 63.5945 57.1669 63.5945C55.2372 63.5945 53.6669 65.1648 53.6669 67.0945C53.6669 69.0241 55.2372 70.5945 57.1669 70.5945H66.5C68.4296 70.5945 70 69.0241 70 67.0945V15.7611C70 15.1172 69.4773 14.5945 68.8334 14.5945ZM66.5 68.2611H57.1666C56.5238 68.2611 56 67.7373 56 67.0945C56 66.4516 56.5238 65.9279 57.1666 65.9279C57.3906 65.9279 57.6029 65.992 57.7989 66.118C58.1186 66.3234 58.5177 66.3607 58.87 66.2184C59.2223 66.0761 59.4825 65.7704 59.5677 65.4005C59.8139 64.3377 60.746 63.5945 61.8334 63.5945C62.9207 63.5945 63.8528 64.3377 64.0991 65.4005C64.1842 65.7704 64.4444 66.0761 64.7967 66.2184C65.148 66.3607 65.548 66.3234 65.8678 66.118C66.6273 65.628 67.6667 66.2277 67.6667 67.0945C67.6666 67.7373 67.1428 68.2611 66.5 68.2611Z" fill="white"/>
<path d="M38.5 16.9278H43.1666C43.8106 16.9278 44.3332 16.4052 44.3332 15.7612V8.76123C44.3332 8.11728 43.8106 7.5946 43.1666 7.5946H38.5C37.8561 7.5946 37.3334 8.11728 37.3334 8.76123V15.7612C37.3334 16.4052 37.8561 16.9278 38.5 16.9278ZM39.6666 9.92785H42V14.5945H39.6666V9.92785Z" fill="white"/>
<path d="M37.3334 43.7611C37.3334 44.405 37.8561 44.9277 38.5 44.9277H43.1666C43.8106 44.9277 44.3332 44.405 44.3332 43.7611V36.7611C44.3332 36.1172 43.8106 35.5945 43.1666 35.5945H38.5C37.8561 35.5945 37.3334 36.1172 37.3334 36.7611V43.7611ZM39.6666 37.9279H42V42.5945H39.6666V37.9279Z" fill="white"/>
<path d="M26.8334 16.9278H31.5C32.1439 16.9278 32.6666 16.4052 32.6666 15.7612V8.76123C32.6666 8.11728 32.1439 7.5946 31.5 7.5946H26.8334C26.1894 7.5946 25.6667 8.11728 25.6667 8.76123V15.7612C25.6666 16.4052 26.1893 16.9278 26.8334 16.9278ZM28 9.92785H30.3334V14.5945H28V9.92785Z" fill="white"/>
<path d="M34.1716 56.9329C33.9616 57.1545 33.8333 57.4579 33.8333 57.7613C33.8333 58.0646 33.9616 58.3679 34.1716 58.5896C34.3933 58.7996 34.6966 58.928 35 58.928C35.3034 58.928 35.6066 58.7996 35.8284 58.5896C36.0384 58.368 36.1668 58.0646 36.1668 57.7613C36.1668 57.4579 36.0384 57.1546 35.8284 56.9329C35.385 56.5011 34.615 56.5011 34.1716 56.9329Z" fill="white"/>
<path d="M25.6666 43.7611C25.6666 44.405 26.1893 44.9277 26.8332 44.9277H31.5C32.1439 44.9277 32.6666 44.405 32.6666 43.7611V36.7611C32.6666 36.1172 32.1439 35.5945 31.5 35.5945H26.8334C26.1894 35.5945 25.6668 36.1172 25.6668 36.7611V43.7611H25.6666ZM28 37.9279H30.3334V42.5945H28V37.9279Z" fill="white"/>
<path d="M23.3334 50.7611C23.3334 51.4051 23.856 51.9277 24.5 51.9277H28V62.4277C28 63.0717 28.5227 63.5943 29.1666 63.5943C29.8106 63.5943 30.3332 63.0717 30.3332 62.4277V51.9277H39.6666V62.4277C39.6666 63.0717 40.1893 63.5943 40.8332 63.5943C41.4772 63.5943 41.9999 63.0717 41.9999 62.4277V51.9277H45.4999C46.1438 51.9277 46.6665 51.4051 46.6665 50.7611C46.6665 50.1172 46.1438 49.5945 45.4999 49.5945H24.5C23.856 49.5945 23.3334 50.1172 23.3334 50.7611Z" fill="white"/>
<path d="M56 43.7611C56 44.405 56.5227 44.9277 57.1666 44.9277H61.8332C62.4772 44.9277 62.9999 44.405 62.9999 43.7611V36.7611C62.9999 36.1172 62.4772 35.5945 61.8332 35.5945H57.1666C56.5227 35.5945 56 36.1172 56 36.7611V43.7611ZM58.3334 37.9279H60.6668V42.5945H58.3334V37.9279Z" fill="white"/>
<path d="M50.1666 0.594482H19.8334C19.1894 0.594482 18.6667 1.11716 18.6667 1.7611V62.4277C18.6667 63.0717 19.1894 63.5943 19.8334 63.5943C20.4773 63.5943 21 63.0717 21 62.4277V2.92772H49V62.4277C49 63.0717 49.5227 63.5943 50.1666 63.5943C50.8106 63.5943 51.3332 63.0717 51.3332 62.4277V1.7611C51.3334 1.11716 50.8107 0.594482 50.1666 0.594482Z" fill="white"/>
</svg>
