<svg width="70" height="71" viewBox="0 0 70 71" fill="none" xmlns="http://www.w3.org/2000/svg">
<path d="M68.633 55.412C57.2148 55.412 46.0081 60.0957 37.8861 68.262C37.3531 68.7977 37.3558 69.6634 37.8909 70.1953C38.1579 70.4608 38.5061 70.5932 38.8554 70.5932C39.2063 70.5932 39.5572 70.4591 39.8247 70.1905C47.4372 62.5364 57.9373 58.1464 68.633 58.1464C69.3881 58.1464 70.0002 57.5344 70.0002 56.7792C70.0002 56.0246 69.3881 55.412 68.633 55.412Z" fill="#3185AB"/>
<path d="M40.1228 54.1457C39.6998 53.5198 38.8502 53.3553 38.2248 53.7782C32.3784 57.7271 27.4411 62.6682 23.5489 68.4638C23.128 69.0908 23.2946 69.9405 23.9216 70.3613C24.1561 70.5184 24.4204 70.5937 24.6827 70.5937C25.1227 70.5937 25.5553 70.3811 25.8191 69.9886C29.5138 64.4861 34.2023 59.7944 39.7554 56.0437C40.3808 55.6213 40.5453 54.7716 40.1228 54.1457Z" fill="#3185AB"/>
<path d="M68.6329 44.4062C62.5206 44.4062 56.4708 45.4503 50.6517 47.5096C49.9398 47.7611 49.567 48.5425 49.8191 49.2544C50.0172 49.8157 50.5449 50.166 51.1078 50.166C51.2589 50.166 51.4127 50.1404 51.5638 50.087C57.0892 48.1318 62.832 47.1406 68.6329 47.1406C69.3881 47.1406 70.0001 46.5285 70.0001 45.7734C70.0001 45.0182 69.3881 44.4062 68.6329 44.4062Z" fill="#3185AB"/>
<path d="M19.5887 61.2127C28.5834 49.4853 41.6037 41.3425 55.9709 38.2909C55.9736 38.2903 55.9763 38.2898 55.9784 38.2893C60.1072 37.4129 64.3461 36.9563 68.6329 36.9563C69.3876 36.9563 70.0001 36.3437 70.0001 35.5891C70.0001 34.8339 69.3876 34.2219 68.6329 34.2219C64.7455 34.2219 60.8731 34.5776 57.0663 35.2734V32.3222C62.0079 28.139 64.7204 22.6574 64.7204 16.8201C64.7204 10.7847 61.821 5.12958 56.5557 0.896092C56.0553 0.493946 55.3424 0.493946 54.8419 0.896092C49.5772 5.12958 46.6773 10.7847 46.6773 16.8201C46.6773 22.6574 49.3903 28.139 54.3314 32.3222V35.8326C51.7337 36.4238 49.1734 37.1774 46.6666 38.0847V30.0797C46.6666 29.7038 46.5149 29.3636 46.2692 29.1163V29.1158L38.613 21.4141C38.3561 21.1561 38.0073 21.0109 37.6431 21.0109H22.0118C21.6481 21.0109 21.2988 21.1561 21.0424 21.4141L13.3862 29.1158V29.1163C13.1405 29.3636 12.9883 29.7038 12.9883 30.0803V35.3012C12.0355 35.1266 11.0785 34.9728 10.1172 34.8414V29.9676C13.854 26.7531 15.9043 22.5607 15.9043 18.0944C15.9043 13.4283 13.6676 9.06078 9.60665 5.79501C9.10623 5.39287 8.3938 5.39287 7.89339 5.79501C3.8324 9.06025 1.59577 13.4283 1.59577 18.0944C1.59577 22.5602 3.64602 26.7525 7.38283 29.967V34.5268C5.38919 34.3404 3.38219 34.2443 1.36719 34.2443C0.612031 34.2443 0 34.8563 0 35.6115C0 36.3667 0.612031 36.9787 1.36719 36.9787C12.2994 36.9787 22.9923 39.8712 32.419 45.3586C30.1604 46.8935 28.0034 48.5699 25.9611 50.3745C18.3236 46.4833 9.83736 44.4299 1.36719 44.4299C0.612565 44.4299 0 45.0419 0 45.7971C0 46.5522 0.612565 47.1643 1.36719 47.1643C9.07419 47.1643 16.7967 48.9566 23.8126 52.3601C21.734 54.3709 19.7911 56.522 17.9983 58.7961C12.6802 56.5658 7.0907 55.4358 1.36719 55.4358C0.612565 55.4358 0 56.0478 0 56.803C0 57.5581 0.612565 58.1701 1.36719 58.1701C6.49415 58.1701 11.5068 59.1421 16.2952 61.0562C15.3504 62.3689 14.4527 63.7174 13.6083 65.1017L11.525 68.5149C11.1314 69.1589 11.3354 70.0006 11.9795 70.3937C12.2022 70.5299 12.4478 70.5945 12.6908 70.5945C13.1512 70.5945 13.6014 70.3611 13.8588 69.9392L15.9422 66.526C17.0285 64.746 18.2023 63.0333 19.4536 61.3889C19.5028 61.3344 19.5487 61.2762 19.5887 61.2127ZM49.4122 16.8201C49.4122 11.9607 51.6355 7.35767 55.6991 3.75064C59.7628 7.35767 61.986 11.9607 61.986 16.8201C61.986 21.1022 60.2578 25.1861 57.0663 28.5641V18.0944C57.0663 17.3392 56.4543 16.7272 55.6991 16.7272C54.944 16.7272 54.3319 17.3392 54.3319 18.0944V28.5641C51.1399 25.1861 49.4122 21.1022 49.4122 16.8201ZM4.33015 18.0944C4.33015 14.607 5.8912 11.2947 8.75002 8.66291C11.6088 11.2942 13.1699 14.607 13.1699 18.0944C13.1699 20.9767 12.1023 23.7399 10.1172 26.0983V17.0006C10.1172 16.2455 9.50518 15.6334 8.75002 15.6334C7.99539 15.6334 7.38283 16.2455 7.38283 17.0006V26.0983C5.39773 23.7399 4.33015 20.9767 4.33015 18.0944ZM42.0128 28.7125H30.2368L25.2989 23.7453H37.0749L42.0128 28.7125ZM22.0118 24.3172L26.3814 28.7125H17.6426L22.0118 24.3172ZM15.7227 31.4469H28.3008V40.1414C27.6669 39.8498 27.0292 39.5678 26.3868 39.297V34.7052C26.3868 33.9506 25.7747 33.338 25.0196 33.338H19.0039C18.2493 33.338 17.6368 33.9506 17.6368 34.7052V36.3309C17.0012 36.1653 16.3636 36.0083 15.7227 35.862V31.4469ZM23.6524 38.2182C22.5682 37.8188 21.4745 37.4481 20.3711 37.1079V36.0724H23.6524V38.2182ZM31.0352 41.4792V31.4469H43.9327V39.1459C41.5909 40.1163 39.3024 41.2239 37.084 42.4694C36.3747 42.8672 35.674 43.2806 34.9814 43.7046C33.6889 42.9153 32.373 42.173 31.0352 41.4792Z" fill="#3185AB"/>
<path d="M55.6991 14.2653C56.0586 14.2653 56.4116 14.119 56.6658 13.8642C56.92 13.61 57.0663 13.2576 57.0663 12.8981C57.0663 12.5382 56.9205 12.1857 56.6658 11.9315C56.4116 11.6767 56.0586 11.5309 55.6991 11.5309C55.3397 11.5309 54.9867 11.6767 54.733 11.9315C54.4783 12.1857 54.332 12.5382 54.332 12.8981C54.332 13.2576 54.4783 13.61 54.733 13.8642C54.9867 14.1185 55.3397 14.2653 55.6991 14.2653Z" fill="#3185AB"/>
<path d="M43.8318 50.5329C43.5781 50.7871 43.4313 51.1396 43.4313 51.499C43.4313 51.86 43.5776 52.2115 43.8318 52.4657C44.0865 52.7204 44.439 52.8662 44.7984 52.8662C45.1584 52.8662 45.5109 52.7204 45.7651 52.4657C46.0193 52.2115 46.1656 51.86 46.1656 51.499C46.1656 51.1396 46.0193 50.7871 45.7651 50.5329C45.5109 50.2782 45.1584 50.1318 44.7984 50.1318C44.439 50.1318 44.0865 50.2782 43.8318 50.5329Z" fill="#3185AB"/>
</svg>
