<svg width="70" height="70" viewBox="0 0 70 70" fill="none" xmlns="http://www.w3.org/2000/svg">
<path d="M54.6352 56.5583C54.4326 56.35 54.3207 56.07 54.3241 55.7794C54.3275 55.4889 54.4459 55.2115 54.6534 55.0081L54.8906 54.7721C55.0958 54.5654 55.3748 54.4487 55.6661 54.4476C55.9574 54.4466 56.2372 54.5613 56.4439 54.7665C56.6506 54.9717 56.7674 55.2507 56.7684 55.542C56.7695 55.8333 56.6548 56.113 56.4495 56.3198L56.1885 56.5783C56.0854 56.6792 55.9634 56.7588 55.8296 56.8126C55.6957 56.8663 55.5526 56.8932 55.4083 56.8916C55.2641 56.89 55.1216 56.8601 54.9889 56.8034C54.8562 56.7467 54.7361 56.6645 54.6352 56.5614V56.5583ZM57.1531 53.9682C57.3812 54.1493 57.6718 54.2325 57.9612 54.1994C58.2506 54.1663 58.515 54.0197 58.6963 53.7918C62.9638 48.456 65.2768 41.8205 65.2508 34.988C65.2508 29.007 63.4772 23.1602 60.1543 18.1871C56.8314 13.214 52.1084 9.33791 46.5826 7.04904C41.0568 4.76017 34.9763 4.1613 29.1102 5.32816C23.244 6.49501 17.8556 9.37518 13.6263 13.6045C9.39701 17.8337 6.51683 23.2222 5.34998 29.0883C4.18312 34.9545 4.782 41.035 7.07086 46.5608C9.35973 52.0866 13.2358 56.8096 18.2089 60.1325C23.182 63.4554 29.0288 65.229 35.0099 65.229C41.624 65.2498 48.0593 63.082 53.3129 59.0636C53.5446 58.8872 53.6968 58.6259 53.736 58.3372C53.7751 58.0486 53.698 57.7562 53.5215 57.5244C53.4342 57.4097 53.3251 57.3132 53.2004 57.2406C53.0758 57.168 52.9381 57.1207 52.7952 57.1013C52.5065 57.0622 52.2141 57.1393 51.9824 57.3158C47.1107 61.0421 41.1432 63.0521 35.0099 63.0325C29.4632 63.0325 24.0411 61.3877 19.4292 58.3061C14.8174 55.2246 11.2228 50.8446 9.10022 45.7202C6.9776 40.5957 6.42223 34.9569 7.50433 29.5169C8.58643 24.0768 11.2574 19.0797 15.1795 15.1577C19.1016 11.2356 24.0986 8.56461 29.5387 7.48251C34.9788 6.40041 40.6176 6.95578 45.742 9.0784C50.8665 11.201 55.2464 14.7955 58.3279 19.4074C61.4095 24.0193 63.0543 29.4414 63.0543 34.988C63.0781 41.3237 60.933 47.4767 56.9755 52.4243C56.8858 52.5373 56.8192 52.6669 56.7796 52.8056C56.74 52.9443 56.7281 53.0894 56.7446 53.2327C56.7611 53.376 56.8056 53.5147 56.8757 53.6408C56.9458 53.7669 57.0401 53.8785 57.1531 53.9682ZM49.3189 20.679C49.4208 20.7811 49.5419 20.8621 49.6752 20.9173C49.8084 20.9726 49.9513 21.001 50.0955 21.001C50.2398 21.001 50.3826 20.9726 50.5159 20.9173C50.6492 20.8621 50.7702 20.7811 50.8722 20.679L52.8014 18.7498C52.8058 18.7454 52.8064 18.7417 52.8102 18.7373C53.0116 18.5307 53.1235 18.2532 53.1218 17.9647C53.12 17.6762 53.0047 17.4 52.8007 17.1959C48.1021 12.4938 41.7324 9.84413 35.0852 9.82649C28.4379 9.80885 22.0542 12.4247 17.3307 17.1018C17.248 17.1566 17.1772 17.2274 17.1224 17.3101C12.4896 22.0553 9.91844 28.4381 9.96833 35.0695C10.0182 41.701 12.6852 48.0444 17.3888 52.7193C22.0924 57.3942 28.452 60.0222 35.0836 60.0315C41.7152 60.0408 48.0822 57.4306 52.7989 52.7689C52.8221 52.7494 52.8478 52.7331 52.8698 52.7118C52.9067 52.6725 52.9407 52.6306 52.9715 52.5863C57.0325 48.4511 59.5399 43.0396 60.0691 37.2679C60.5982 31.4963 59.1167 25.7191 55.8753 20.9144C55.7104 20.6774 55.4589 20.5149 55.1751 20.462C54.8914 20.409 54.5982 20.47 54.359 20.6315C54.1198 20.7931 53.9538 21.0424 53.897 21.3254C53.8401 21.6084 53.897 21.9024 54.0553 22.1438C56.4058 25.6263 57.7492 29.69 57.9376 33.8873H56.3479C56.0566 33.8873 55.7772 34.003 55.5713 34.2089C55.3653 34.4149 55.2496 34.6943 55.2496 34.9855C55.2496 35.2768 55.3653 35.5562 55.5713 35.7621C55.7772 35.9681 56.0566 36.0838 56.3479 36.0838H57.9501C57.6996 41.3844 55.6141 46.4331 52.0508 50.3652C48.0204 46.6527 42.8883 44.3575 37.4343 43.8282C31.9803 43.299 26.5026 44.5648 21.8337 47.4331C21.5857 47.5859 21.4085 47.831 21.3412 48.1144C21.2739 48.3978 21.3219 48.6964 21.4747 48.9444C21.6275 49.1924 21.8725 49.3695 22.1559 49.4368C22.4394 49.5042 22.7379 49.4561 22.9859 49.3033C27.2353 46.6941 32.2184 45.5385 37.1824 46.0112C42.1465 46.4839 46.8219 48.5592 50.5025 51.9235C47.2864 54.8699 43.2973 56.839 39.0025 57.6001C34.7077 58.3611 30.2849 57.8828 26.2522 56.221C22.2194 54.5592 18.7436 51.7828 16.2318 48.2168C13.7201 44.6509 12.2763 40.4432 12.0696 36.0863H13.6719C13.9632 36.0863 14.2425 35.9706 14.4485 35.7646C14.6544 35.5587 14.7702 35.2793 14.7702 34.988C14.7702 34.6968 14.6544 34.4174 14.4485 34.2114C14.2425 34.0055 13.9632 33.8898 13.6719 33.8898H12.0696C12.3206 28.5624 14.4248 23.49 18.0185 19.5494L19.1451 20.679C19.3514 20.8854 19.6312 21.0013 19.923 21.0013C20.2147 21.0013 20.4946 20.8854 20.7009 20.679C20.9072 20.4727 21.0231 20.1929 21.0231 19.9011C21.0231 19.6094 20.9072 19.3296 20.7009 19.1232L19.5712 17.9967C23.5119 14.403 28.5842 12.2988 33.9116 12.0478V13.6501C33.9116 13.9413 34.0273 14.2207 34.2333 14.4267C34.4392 14.6326 34.7186 14.7483 35.0099 14.7483C35.3012 14.7483 35.5805 14.6326 35.7865 14.4267C35.9924 14.2207 36.1082 13.9413 36.1082 13.6501V12.0466C41.439 12.286 46.5166 14.3891 50.4554 17.9892L49.3189 19.1232C49.2164 19.2252 49.1351 19.3465 49.0797 19.48C49.0242 19.6134 48.9956 19.7566 48.9956 19.9011C48.9956 20.0457 49.0242 20.1888 49.0797 20.3223C49.1351 20.4558 49.2164 20.5771 49.3189 20.679ZM37.5202 34.988C37.5202 35.2793 37.6359 35.5587 37.8419 35.7646C38.0479 35.9706 38.3272 36.0863 38.6185 36.0863C38.9098 36.0863 39.1891 35.9706 39.3951 35.7646C39.6011 35.5587 39.7168 35.2793 39.7168 34.988C39.7168 32.944 36.6749 22.2656 36.0655 20.1456C35.9995 19.9167 35.8609 19.7155 35.6705 19.5723C35.4802 19.429 35.2484 19.3516 35.0102 19.3516C34.772 19.3516 34.5402 19.429 34.3499 19.5723C34.1595 19.7155 34.0209 19.9167 33.9549 20.1456C33.3449 22.2656 30.303 32.944 30.303 34.988C30.3043 36.236 30.8006 37.4324 31.6831 38.3149C32.5655 39.1973 33.7619 39.6936 35.0099 39.695C35.3012 39.695 35.5805 39.5793 35.7865 39.3733C35.9924 39.1673 36.1082 38.888 36.1082 38.5967C36.1082 38.3054 35.9924 38.0261 35.7865 37.8201C35.5805 37.6141 35.3012 37.4984 35.0099 37.4984C34.3441 37.4984 33.7056 37.2339 33.2348 36.7631C32.764 36.2924 32.4995 35.6538 32.4995 34.988C32.4995 33.9607 33.788 28.9494 35.0099 24.5073C36.2318 28.9494 37.5202 33.9607 37.5202 34.988ZM28.1453 55.62C27.854 55.62 27.5747 55.5043 27.3687 55.2983C27.1627 55.0924 27.047 54.813 27.047 54.5217V50.0502C27.047 49.7589 27.1627 49.4795 27.3687 49.2736C27.5747 49.0676 27.854 48.9519 28.1453 48.9519H41.8738C42.1651 48.9519 42.4444 49.0676 42.6504 49.2736C42.8564 49.4795 42.9721 49.7589 42.9721 50.0502V54.5217C42.9721 54.813 42.8564 55.0924 42.6504 55.2983C42.4444 55.5043 42.1651 55.62 41.8738 55.62H28.1453ZM29.2436 53.4235H40.7755V51.1484H29.2436V53.4235ZM35.0099 6.61238e-06C32.7807 -0.00135892 30.5564 0.208779 28.3669 0.627595C28.0815 0.683353 27.83 0.849957 27.6673 1.09089C27.5046 1.33182 27.4441 1.62742 27.499 1.9129C27.5539 2.19838 27.7197 2.45045 27.9602 2.61385C28.2006 2.77726 28.496 2.83866 28.7817 2.78462C35.4119 1.50132 42.2767 2.29617 48.4382 5.06059C54.5998 7.82502 59.7577 12.4242 63.2074 18.2299C66.6571 24.0357 68.2303 30.7648 67.7122 37.4982C67.1942 44.2316 64.61 50.6409 60.3128 55.8505C56.0155 61.0602 50.2148 64.8162 43.7028 66.6055C37.1909 68.3948 30.2854 68.1301 23.9295 65.8476C17.5736 63.5652 12.0773 59.3762 8.19145 53.8529C4.30557 48.3296 2.21957 41.7413 2.21839 34.988C2.20651 28.9646 3.85873 23.0549 6.99278 17.911C10.1268 12.767 14.6209 8.5888 19.9791 5.83721C20.2319 5.70019 20.4208 5.46954 20.5054 5.19478C20.59 4.92002 20.5634 4.62305 20.4315 4.36763C20.2995 4.11221 20.0727 3.91871 19.7997 3.82866C19.5267 3.73862 19.2292 3.75922 18.9712 3.88603C11.3589 7.8076 5.44841 14.3838 2.35833 22.3698C-0.731746 30.3558 -0.786942 39.1976 2.20319 47.2216C5.19332 55.2456 11.0213 61.8951 18.584 65.9114C26.1468 69.9277 34.9195 71.0321 43.2417 69.0157C51.5639 66.9993 58.8582 62.002 63.7439 54.9695C68.6296 47.9371 70.7678 39.3575 69.7536 30.8547C68.7394 22.352 64.6434 14.516 58.2407 8.82999C51.838 3.14396 43.5729 0.0024301 35.0099 6.61238e-06ZM23.9461 4.04356C24.0676 4.04246 24.188 4.02126 24.3026 3.9808L24.6591 3.8603C24.9304 3.76475 25.1535 3.56652 25.2803 3.30824C25.407 3.04996 25.4274 2.75225 25.3369 2.47912C25.2465 2.206 25.0525 1.97926 24.7966 1.84768C24.5408 1.71609 24.2435 1.69016 23.9687 1.77545L23.5922 1.90097C23.3459 1.9851 23.1376 2.15391 23.0042 2.37733C22.8709 2.60075 22.8211 2.86427 22.8639 3.12092C22.9067 3.37757 23.0393 3.61069 23.2379 3.77874C23.4366 3.94679 23.6884 4.03886 23.9486 4.03854L23.9461 4.04356Z" fill="#3185AB"/>
</svg>
