<svg width="70" height="70" viewBox="0 0 70 70" fill="none" xmlns="http://www.w3.org/2000/svg">
<g clip-path="url(#clip0)">
<path d="M69.85 68.0095L69.0877 66.5213C63.6156 55.8369 60.723 43.8443 60.723 31.8402V30.0259C60.723 29.2708 60.1108 28.6587 59.3558 28.6587H42.6303C41.8754 28.6587 41.2632 29.2708 41.2632 30.0259V31.8402C41.2632 36.06 40.9089 40.2795 40.2103 44.4412C38.2072 36.425 37.1742 28.1664 37.1742 19.9028V17.5C37.1742 16.7449 36.5619 16.1328 35.807 16.1328H15.0219V13.0114C15.0219 10.322 17.0392 8.11152 19.7141 7.86967C20.3092 7.8158 20.8003 7.38186 20.9271 6.79793C21.438 4.44336 23.5599 2.73438 25.9728 2.73438C27.97 2.73438 29.8075 3.9051 30.6536 5.71689C30.8628 6.16451 31.2972 6.46447 31.7899 6.50152C32.2835 6.53898 32.7571 6.30697 33.0306 5.89559C33.7204 4.85885 34.8735 4.24006 36.1154 4.24006C37.6464 4.24006 39.0385 5.20256 39.5793 6.63496C39.7803 7.16707 40.2896 7.51912 40.8583 7.51912H43.0498C44.187 7.51912 45.1122 8.44443 45.1122 9.58166C45.1122 10.7189 44.187 11.6442 43.0498 11.6442H39.7203C38.9653 11.6442 38.3531 12.2563 38.3531 13.0114C38.3531 13.7665 38.9653 14.3786 39.7203 14.3786H43.0498C45.6948 14.3786 47.8466 12.2268 47.8466 9.58166C47.8466 6.93656 45.6948 4.78475 43.0498 4.78475H41.7232C40.5951 2.79084 38.448 1.50568 36.1153 1.50568C34.632 1.50568 33.222 2.01277 32.0963 2.91389C30.6152 1.10168 28.3693 0 25.9728 0C22.6072 0 19.6114 2.1752 18.5173 5.29115C16.9301 5.63281 15.4821 6.45791 14.3681 7.6702C13.0265 9.13035 12.2875 11.0273 12.2875 13.0115V17.5V19.9028C12.2875 35.8719 8.43972 51.8253 1.16013 66.0386L0.150733 68.0095C-0.0663761 68.4333 -0.0472354 68.9396 0.201046 69.3458C0.449464 69.7523 0.891339 70 1.36753 70H33.353H48.0942H68.6332C69.1093 70 69.5512 69.7523 69.7996 69.3459C70.0481 68.9396 70.0671 68.4335 69.85 68.0095ZM43.9975 31.3932H57.9888V31.8403C57.9888 32.4659 57.9984 33.0915 58.0135 33.717H43.9729C43.9878 33.0915 43.9974 32.4661 43.9974 31.8403V31.3932H43.9975ZM33.353 67.2656H3.60384C10.2131 54.3546 14.0628 40.0467 14.8628 25.5664H24.9611C25.716 25.5664 26.3283 24.9543 26.3283 24.1992C26.3283 23.4441 25.716 22.832 24.9611 22.832H14.979C15.007 21.856 15.0219 20.8794 15.0219 19.9028V18.8672H34.4398V19.9028C34.4398 36.2962 38.3878 52.673 45.8579 67.2656H33.353ZM48.9301 67.2656L48.3016 66.0386C45.6978 60.9548 43.5357 55.6475 41.829 50.1974C42.9091 45.6869 43.59 41.0811 43.8618 36.4513H58.1258C58.7597 47.1409 61.5863 57.698 66.399 67.2656H48.9301Z" fill="#3185AB"/>
<path d="M30.5566 25.5664C30.9162 25.5664 31.2689 25.4201 31.5231 25.1658C31.7774 24.9115 31.9238 24.5588 31.9238 24.1992C31.9238 23.8396 31.7775 23.4869 31.5231 23.2326C31.2689 22.9783 30.9162 22.832 30.5566 22.832C30.1971 22.832 29.8443 22.9783 29.59 23.2326C29.3357 23.4869 29.1895 23.8396 29.1895 24.1992C29.1895 24.5588 29.3356 24.9115 29.59 25.1658C29.8445 25.4201 30.1971 25.5664 30.5566 25.5664Z" fill="#3185AB"/>
<path d="M27.7534 48.9805L31.31 42.8202C31.4914 42.5127 31.5457 42.146 31.4601 41.7985C31.3712 41.4374 31.1391 41.1283 30.8172 40.9419C28.9745 39.8758 26.8699 39.3123 24.7306 39.3123C22.5914 39.3123 20.4866 39.8758 18.6439 40.9419C18.3169 41.1312 18.0832 41.4477 17.9975 41.8154C17.9182 42.1553 17.9724 42.512 18.1464 42.8121L21.7077 48.9803C21.4294 49.316 21.2062 49.6988 21.0511 50.1145H13.9267C13.172 50.1145 12.5602 50.7258 12.5595 51.4805C12.5575 53.6093 13.1219 55.7139 14.1915 57.5665C15.2612 59.4192 16.8016 60.9602 18.6463 62.0229C18.8556 62.1435 19.0909 62.205 19.3279 62.205C19.4605 62.205 19.5936 62.1857 19.723 62.1469C20.0583 62.046 20.3413 61.82 20.5149 61.5181L24.0751 55.3517C24.2884 55.3878 24.5072 55.4075 24.7306 55.4075C24.954 55.4075 25.1728 55.3877 25.3861 55.3517L28.9406 61.5084C29.1136 61.8159 29.3992 62.0454 29.7385 62.1476C29.8674 62.1864 30.0002 62.2055 30.1324 62.2055C30.3696 62.2055 30.6053 62.1437 30.8149 62.023C32.6595 60.9603 34.2001 59.4193 35.2696 57.5667C36.3392 55.714 36.9035 53.6095 36.9016 51.4806C36.9009 50.726 36.2876 50.1147 35.5329 50.1147H28.4099C28.255 49.6988 28.0317 49.3161 27.7534 48.9805ZM24.7306 52.6728C24.0738 52.6728 23.5396 52.1385 23.5396 51.4817C23.5396 50.8249 24.0738 50.2906 24.7306 50.2906C25.3874 50.2906 25.9216 50.8249 25.9216 51.4817C25.9216 52.1385 25.3873 52.6728 24.7306 52.6728ZM24.7306 42.0468C25.9288 42.0468 27.1124 42.2744 28.2151 42.7119L25.3861 47.6122C25.1728 47.5762 24.954 47.5564 24.7306 47.5564C24.5072 47.5564 24.2885 47.5762 24.0751 47.6122L21.2461 42.7119C22.3487 42.2744 23.5324 42.0468 24.7306 42.0468ZM18.8779 58.8844C17.9476 58.1481 17.1586 57.2369 16.5595 56.1992C15.9604 55.1615 15.5657 54.0227 15.3933 52.8489H21.0513C21.2062 53.2647 21.4294 53.6474 21.7077 53.983L18.8779 58.8844ZM32.9015 56.1994C32.3024 57.237 31.5134 58.1483 30.5832 58.8845L27.7534 53.9831C28.0316 53.6475 28.2548 53.2647 28.4097 52.8491H34.0677C33.8953 54.0227 33.5006 55.1617 32.9015 56.1994Z" fill="#3185AB"/>
<path d="M52.3852 23.1824C52.3852 24.2044 52.7832 25.1651 53.5057 25.8876C53.7727 26.1547 54.1226 26.2881 54.4725 26.2881C54.8223 26.2881 55.1723 26.1545 55.4392 25.8876C55.9731 25.3538 55.9731 24.4881 55.4392 23.9542C55.2329 23.748 55.1194 23.4739 55.1194 23.1824C55.1194 22.8909 55.2329 22.6168 55.4392 22.4105C56.9308 20.9187 56.9308 18.4916 55.4392 17C54.9053 16.4661 54.0399 16.4661 53.5056 17C52.9717 17.5339 52.9717 18.3996 53.5056 18.9334C53.9311 19.359 53.9311 20.0515 53.5056 20.4771C52.7832 21.1997 52.3852 22.1604 52.3852 23.1824Z" fill="#3185AB"/>
<path d="M46.5463 17C46.0125 17.5338 46.0125 18.3995 46.5463 18.9334C46.9718 19.359 46.9718 20.0515 46.5463 20.4771C45.8238 21.1997 45.4258 22.1605 45.4258 23.1825C45.4258 24.2045 45.8238 25.1652 46.5463 25.8878C46.8134 26.1548 47.1632 26.2882 47.5131 26.2882C47.8629 26.2882 48.2129 26.1546 48.4798 25.8878C49.0137 25.3539 49.0137 24.4882 48.4798 23.9543C48.2735 23.7481 48.16 23.474 48.16 23.1825C48.16 22.891 48.2735 22.6169 48.4798 22.4106C49.9714 20.9189 49.9714 18.4917 48.4798 17.0001C47.9459 16.4661 47.0805 16.4662 46.5463 17Z" fill="#3185AB"/>
</g>
<defs>
<clipPath id="clip0">
<rect width="70" height="70" fill="white"/>
</clipPath>
</defs>
</svg>
